<mxfile host="app.diagrams.net" modified="2023-04-18T09:39:13.646Z" agent="Mozilla/5.0 (Windows NT 10.0; Win64; x64) AppleWebKit/537.36 (KHTML, like Gecko) Chrome/112.0.0.0 Safari/537.36" etag="vFwHyEKm524MYqBPVah0" version="21.1.8" type="google">
  <diagram name="Page-1" id="G3DsE0MbdHHnbtvKET4H">
    <mxGraphModel dx="794" dy="1605" grid="1" gridSize="10" guides="1" tooltips="1" connect="1" arrows="1" fold="1" page="1" pageScale="1" pageWidth="827" pageHeight="1169" math="0" shadow="0">
      <root>
        <mxCell id="0" />
        <mxCell id="1" parent="0" />
        <mxCell id="fMZaM2UqrWa_nwEGe8P5-1" value="" style="rounded=1;whiteSpace=wrap;html=1;fillColor=#031d2f;strokeColor=#6c8ebf;" parent="1" vertex="1">
          <mxGeometry x="90" y="-60" width="720" height="640" as="geometry" />
        </mxCell>
        <mxCell id="fMZaM2UqrWa_nwEGe8P5-2" value="" style="rounded=0;whiteSpace=wrap;html=1;fillColor=#224c7b;" parent="1" vertex="1">
          <mxGeometry x="140" y="50" width="620" height="90" as="geometry" />
        </mxCell>
        <mxCell id="fMZaM2UqrWa_nwEGe8P5-3" value="&lt;font style=&quot;font-size: 14px;&quot; color=&quot;#ffffff&quot;&gt;Presentation Layer&lt;/font&gt;" style="text;html=1;align=center;verticalAlign=middle;whiteSpace=wrap;rounded=0;" parent="1" vertex="1">
          <mxGeometry x="272" y="80" width="140" height="30" as="geometry" />
        </mxCell>
        <mxCell id="fMZaM2UqrWa_nwEGe8P5-4" value="&lt;font color=&quot;#ffffff&quot;&gt;&lt;span style=&quot;font-size: 16px;&quot;&gt;UI Framework&lt;br&gt;( ReactJS )&lt;/span&gt;&lt;br&gt;&lt;/font&gt;" style="text;html=1;strokeColor=none;fillColor=none;align=center;verticalAlign=middle;whiteSpace=wrap;rounded=0;" parent="1" vertex="1">
          <mxGeometry x="542" y="69.5" width="128" height="51" as="geometry" />
        </mxCell>
        <mxCell id="fMZaM2UqrWa_nwEGe8P5-11" value="" style="rounded=0;whiteSpace=wrap;html=1;fillColor=#224c7b;" parent="1" vertex="1">
          <mxGeometry x="138" y="420" width="622" height="90" as="geometry" />
        </mxCell>
        <mxCell id="fMZaM2UqrWa_nwEGe8P5-12" value="&lt;font style=&quot;font-size: 14px;&quot; color=&quot;#ffffff&quot;&gt;Data Store Layer&lt;/font&gt;" style="text;html=1;align=center;verticalAlign=middle;whiteSpace=wrap;rounded=0;" parent="1" vertex="1">
          <mxGeometry x="272" y="450" width="125" height="30" as="geometry" />
        </mxCell>
        <mxCell id="fMZaM2UqrWa_nwEGe8P5-13" value="&lt;font color=&quot;#ffffff&quot;&gt;&lt;span style=&quot;font-size: 16px;&quot;&gt;Amazon S3 Bucket&lt;/span&gt;&lt;br&gt;&lt;/font&gt;" style="text;html=1;strokeColor=none;fillColor=none;align=center;verticalAlign=middle;whiteSpace=wrap;rounded=0;" parent="1" vertex="1">
          <mxGeometry x="536" y="439.5" width="166" height="51" as="geometry" />
        </mxCell>
        <mxCell id="fMZaM2UqrWa_nwEGe8P5-14" value="&lt;font style=&quot;font-size: 30px;&quot; color=&quot;#ffffff&quot;&gt;ARCHITECTURE DIAGRAM&lt;/font&gt;" style="text;html=1;strokeColor=none;fillColor=none;align=center;verticalAlign=middle;whiteSpace=wrap;rounded=0;" parent="1" vertex="1">
          <mxGeometry x="230" y="-20" width="440" height="30" as="geometry" />
        </mxCell>
        <mxCell id="fMZaM2UqrWa_nwEGe8P5-15" value="&lt;font style=&quot;font-size: 14px;&quot; color=&quot;#ffffff&quot;&gt;Tier 1&lt;/font&gt;" style="text;html=1;strokeColor=none;fillColor=none;align=center;verticalAlign=middle;whiteSpace=wrap;rounded=0;" parent="1" vertex="1">
          <mxGeometry x="150" y="80" width="60" height="30" as="geometry" />
        </mxCell>
        <mxCell id="fMZaM2UqrWa_nwEGe8P5-18" value="" style="rounded=0;whiteSpace=wrap;html=1;" parent="1" vertex="1">
          <mxGeometry x="140" y="159.5" width="620" height="240" as="geometry" />
        </mxCell>
        <mxCell id="fMZaM2UqrWa_nwEGe8P5-17" value="&lt;font style=&quot;font-size: 14px;&quot; color=&quot;#ffffff&quot;&gt;Tier 3&lt;/font&gt;" style="text;html=1;strokeColor=none;fillColor=none;align=center;verticalAlign=middle;whiteSpace=wrap;rounded=0;" parent="1" vertex="1">
          <mxGeometry x="158" y="450" width="60" height="30" as="geometry" />
        </mxCell>
        <mxCell id="fMZaM2UqrWa_nwEGe8P5-19" value="" style="rounded=0;whiteSpace=wrap;html=1;fillColor=#224c7b;" parent="1" vertex="1">
          <mxGeometry x="250" y="184.5" width="490" height="90" as="geometry" />
        </mxCell>
        <mxCell id="fMZaM2UqrWa_nwEGe8P5-20" value="&lt;font style=&quot;font-size: 14px;&quot; color=&quot;#ffffff&quot;&gt;Business Application Layer&lt;/font&gt;" style="text;html=1;align=center;verticalAlign=middle;whiteSpace=wrap;rounded=0;" parent="1" vertex="1">
          <mxGeometry x="275" y="214.5" width="172" height="30" as="geometry" />
        </mxCell>
        <mxCell id="fMZaM2UqrWa_nwEGe8P5-21" value="&lt;font color=&quot;#ffffff&quot;&gt;&lt;span style=&quot;font-size: 16px;&quot;&gt;NodeJS,NextJS&lt;/span&gt;&lt;br&gt;&lt;/font&gt;" style="text;html=1;strokeColor=none;fillColor=none;align=center;verticalAlign=middle;whiteSpace=wrap;rounded=0;" parent="1" vertex="1">
          <mxGeometry x="546" y="204" width="136" height="51" as="geometry" />
        </mxCell>
        <mxCell id="fMZaM2UqrWa_nwEGe8P5-22" value="" style="rounded=0;whiteSpace=wrap;html=1;fillColor=#224c7b;" parent="1" vertex="1">
          <mxGeometry x="250" y="284.5" width="490" height="90" as="geometry" />
        </mxCell>
        <mxCell id="fMZaM2UqrWa_nwEGe8P5-23" value="&lt;font style=&quot;font-size: 14px;&quot; color=&quot;#ffffff&quot;&gt;Data Access Layer&lt;/font&gt;" style="text;html=1;align=center;verticalAlign=middle;whiteSpace=wrap;rounded=0;" parent="1" vertex="1">
          <mxGeometry x="275" y="314" width="125" height="30" as="geometry" />
        </mxCell>
        <mxCell id="fMZaM2UqrWa_nwEGe8P5-24" value="&lt;font color=&quot;#ffffff&quot;&gt;&lt;span style=&quot;font-size: 16px;&quot;&gt;MongoDB,RedisDB&lt;/span&gt;&lt;br&gt;&lt;/font&gt;" style="text;html=1;strokeColor=none;fillColor=none;align=center;verticalAlign=middle;whiteSpace=wrap;rounded=0;" parent="1" vertex="1">
          <mxGeometry x="546" y="303.5" width="166" height="51" as="geometry" />
        </mxCell>
        <mxCell id="fMZaM2UqrWa_nwEGe8P5-25" value="&lt;font style=&quot;font-size: 14px;&quot;&gt;Tier 2&lt;/font&gt;" style="text;html=1;strokeColor=none;fillColor=none;align=center;verticalAlign=middle;whiteSpace=wrap;rounded=0;" parent="1" vertex="1">
          <mxGeometry x="158" y="255" width="60" height="30" as="geometry" />
        </mxCell>
      </root>
    </mxGraphModel>
  </diagram>
</mxfile>
